<?xml version="1.0" encoding="UTF-8" standalone="no"?>
<svg xmlns="http://www.w3.org/2000/svg" viewBox="0 0 1981.000000 793.000000" preserveAspectRatio="xMidYMid meet">
  <defs>
    <linearGradient id="goldGradient" x1="0%" y1="0%" x2="100%" y2="100%">
      <stop offset="0%" stop-color="#C9A24A"/>
      <stop offset="50%" stop-color="#E5C36A"/>
      <stop offset="100%" stop-color="#C9A24A"/>
    </linearGradient>
  </defs>
  <rect x="0" y="0" width="1981.000000" height="793.000000" fill="#000000"/>
  <g transform="translate(0.000000,793.000000) scale(0.100000,-0.100000)" fill="url(#goldGradient)">
    <path d="M4833 5495 c-282 -171 -525 -315 -532 -315 -3 0 -98 56 -211 124
-134 81 -205 129 -204 140 2 16 -28 31 -70 35 -8 0 -27 12 -42 26 -15 14 -34
25 -43 25 -10 0 -21 4 -26 9 -6 5 -27 18 -47 30 l-38 20 -107 -53 c-62 -31
-129 -57 -158 -61 -58 -8 -80 -22 -65 -40 7 -9 -17 -25 -91 -62 -97 -49 -101
-51 -78 -64 32 -17 49 -35 41 -44 -4 -4 5 -1 20 6 15 6 25 16 21 22 -3 5 0 7
8 5 8 -3 68 21 133 54 98 48 125 57 155 53 117 -17 151 -17 194 -2 l45 15 234
-135 c128 -75 239 -141 246 -148 11 -10 -16 -48 -144 -206 -310 -380 -394
-487 -394 -498 0 -6 -4 -11 -10 -11 -5 0 -35 -32 -67 -71 l-57 -72 -76 155
c-41 84 -94 194 -117 243 -23 50 -89 190 -147 313 -58 123 -106 229 -106 237
0 7 9 17 20 20 34 11 22 23 -27 27 -81 8 -100 -6 -138 -97 -35 -85 -117 -280
-234 -558 -53 -125 -70 -175 -65 -195 5 -23 131 -443 237 -790 l32 -103 153
-107 c85 -59 186 -130 225 -157 40 -28 108 -76 152 -106 44 -31 233 -163 420
-294 376 -264 423 -295 441 -295 7 0 151 93 321 206 323 217 353 237 708 482
349 240 360 248 368 273 11 37 210 629 258 771 l43 126 -113 289 c-63 158
-137 346 -166 416 l-51 128 -110 59 c-60 32 -113 56 -117 53 -5 -3 -14 2 -20
10 -19 24 -376 209 -408 211 -21 2 -74 -25 -196 -99z m230 11 c12 -8 135 -73
272 -146 138 -72 254 -135 259 -140 5 -5 -9 -41 -33 -84 -23 -42 -38 -76 -34
-76 5 0 3 -4 -3 -8 -18 -11 -152 -276 -147 -290 6 -14 -16 -44 -26 -37 -11 6
-42 -64 -35 -77 4 -6 2 -8 -3 -5 -11 7 -26 -25 -37 -76 -4 -17 -11 -25 -18
-21 -7 5 -8 3 -3 -5 4 -7 -1 -20 -13 -31 -11 -10 -45 -68 -76 -129 l-57 -111
-34 26 c-35 26 -46 41 -22 29 6 -4 -4 7 -23 24 -19 17 -30 31 -26 31 5 0 3 7
-4 15 -7 8 -16 13 -20 10 -12 -7 -39 19 -43 41 -1 12 -25 45 -51 75 -27 30
-43 46 -36 37 24 -34 2 -18 -26 19 -15 20 -22 33 -14 28 7 -5 -11 21 -40 56
-29 35 -58 64 -64 64 -6 0 -16 11 -22 24 -7 13 -18 27 -26 32 -7 5 -13 12 -13
17 0 5 -58 77 -130 161 -71 84 -131 158 -133 164 -1 7 21 27 50 44 261 155
519 310 548 330 40 27 53 28 83 9z m-1889 -613 c70 -148 169 -353 220 -458 51
-104 92 -191 91 -193 -1 -1 -42 11 -91 27 -49 16 -165 53 -259 81 -179 54
-388 120 -393 125 -1 1 40 98 91 216 51 118 118 271 147 342 29 70 56 127 60
127 4 0 64 -120 134 -267z m2535 120 c29 -76 89 -229 133 -341 45 -111 79
-204 77 -206 -2 -3 -141 -48 -309 -101 -168 -53 -312 -99 -320 -102 -8 -3 -18
-6 -22 -5 -4 1 -26 -5 -49 -13 -23 -9 -44 -13 -46 -11 -2 2 10 31 26 65 17 34
28 61 24 61 -5 0 0 5 9 11 11 6 15 16 11 26 -4 10 -2 14 4 10 11 -7 32 32 40
72 5 32 12 43 23 36 11 -7 22 24 13 37 -3 6 -2 8 4 5 12 -8 56 81 47 95 -4 6
-3 8 3 5 10 -6 36 35 38 63 4 32 17 60 28 60 7 0 55 83 107 185 52 102 98 185
101 185 3 0 29 -62 58 -137z m-1211 -145 c65 -76 122 -138 127 -138 6 0 16 -9
23 -21 11 -17 11 -20 0 -13 -7 4 9 -17 36 -49 27 -31 53 -54 58 -51 5 3 7 1 6
-5 -2 -5 6 -17 17 -26 11 -9 13 -13 5 -9 -8 5 9 -20 39 -54 30 -34 58 -62 63
-62 5 0 7 -4 4 -9 -3 -5 1 -14 9 -21 8 -7 15 -9 15 -5 0 4 7 2 15 -5 8 -7 12
-16 10 -21 -3 -4 4 -13 15 -19 11 -6 19 -15 17 -21 -1 -6 7 -16 18 -22 19 -11
39 -35 40 -47 0 -3 10 -16 23 -30 12 -13 22 -27 22 -32 0 -4 -19 -12 -42 -18
-24 -6 -88 -25 -143 -41 -55 -16 -138 -41 -185 -55 -47 -14 -119 -36 -160 -49
-136 -42 -182 -55 -191 -55 -5 0 -9 230 -9 532 l0 531 26 -24 c14 -13 78 -86
142 -161z m-236 -391 c3 -474 3 -478 -17 -474 -11 3 -119 36 -240 75 -121 39
-266 85 -322 103 -57 17 -103 36 -103 41 0 4 17 27 38 51 21 23 80 94 131 157
50 63 99 124 108 135 9 10 59 71 112 135 53 64 139 167 191 230 l95 114 2 -45
c2 -24 4 -259 5 -522z m-1442 -107 c25 -6 70 -20 100 -30 85 -29 356 -110 440
-132 41 -11 79 -23 83 -28 5 -4 -19 -39 -54 -76 -34 -38 -81 -92 -103 -120
-108 -134 -311 -363 -317 -356 -3 4 -14 36 -24 72 -21 79 -191 647 -201 674
-6 15 -3 17 12 13 10 -3 39 -11 64 -17z m3110 15 c0 -2 -16 -51 -36 -107 -20
-57 -78 -228 -129 -381 -51 -153 -96 -281 -100 -285 -4 -4 -12 1 -19 11 -27
44 -335 407 -311 368 5 -10 4 -12 -4 -7 -6 4 -9 11 -7 14 2 4 -8 21 -22 38
-15 16 -22 23 -17 14 9 -13 8 -13 -7 -1 -10 7 -16 17 -13 21 3 5 1 11 -4 14
-5 4 -24 24 -41 46 l-31 39 113 35 c248 77 604 184 616 185 6 1 12 -1 12 -4z
m-2313 -402 c48 -98 89 -181 91 -184 2 -4 -14 -10 -34 -14 -36 -6 -93 -23
-454 -133 -90 -28 -166 -49 -169 -47 -4 5 56 79 293 357 70 82 177 198 182
198 2 0 42 -80 91 -177z m1537 120 c18 -21 96 -112 171 -203 76 -91 165 -194
198 -229 33 -36 55 -67 49 -69 -6 -2 -71 15 -144 37 -520 159 -552 170 -530
178 6 3 9 9 6 14 -3 6 -11 3 -18 -6 -10 -14 -15 -14 -55 0 -25 8 -53 12 -64 9
-12 -4 -17 -2 -13 4 4 6 -2 8 -14 5 -11 -3 -20 -1 -20 3 0 5 -16 9 -35 10 -19
0 -41 7 -48 16 -6 8 -54 27 -106 42 -100 28 -112 33 -90 40 8 2 95 29 194 59
229 70 343 103 378 111 27 6 35 -2 18 -19 -12 -14 -133 -247 -129 -250 2 -2
14 -5 27 -7 20 -3 29 9 75 97 57 111 106 195 112 195 2 0 19 -17 38 -37z
m-1421 -13 c56 -17 182 -56 280 -87 l178 -57 -103 -33 c-170 -54 -318 -97
-321 -92 -4 6 -108 218 -128 262 -10 20 -16 37 -13 37 2 0 51 -14 107 -30z
m777 -242 c69 -22 168 -53 220 -68 52 -16 111 -34 130 -41 19 -6 53 -18 76
-26 22 -7 121 -33 219 -58 138 -35 181 -42 187 -33 5 9 8 8 8 -4 0 -11 7 -18
18 -18 13 0 14 2 4 9 -11 6 -9 9 6 13 15 4 20 1 17 -12 -2 -13 7 -20 33 -28
31 -10 92 -20 125 -22 5 0 6 -4 3 -9 -4 -5 7 -12 24 -16 26 -6 28 -9 18 -25
-7 -10 -15 -18 -18 -17 -3 1 -142 -91 -310 -205 -463 -313 -874 -587 -878
-584 -2 3 402 830 443 907 8 14 19 37 24 52 8 21 7 25 -7 22 -9 -1 -20 2 -23
8 -11 16 -87 -124 -286 -521 -102 -205 -189 -375 -194 -377 -8 -5 -18 1008
-10 1073 3 28 6 32 25 26 11 -4 77 -25 146 -46z m-241 -425 c1 -258 4 -507 7
-555 5 -63 4 -88 -5 -88 -6 0 -11 4 -11 9 0 4 -65 142 -145 305 -80 163 -145
299 -145 301 0 3 -39 84 -86 180 -47 97 -84 178 -82 179 10 8 426 134 445 135
l22 1 0 -467z m-501 251 c44 -110 90 -208 394 -832 33 -68 58 -125 56 -127 -1
-1 -83 54 -181 124 -231 164 -637 445 -650 450 -6 2 -20 13 -32 23 -11 11 -86
63 -167 116 -81 53 -147 100 -148 105 0 4 7 7 16 7 17 0 565 160 629 184 22 8
44 13 50 12 5 -1 20 -29 33 -62z"/><path d="M8405 5260 c-117 -26 -234 -89 -319 -174 -34 -33 -68 -74 -76 -91 -8
-16 -18 -32 -21 -35 -3 -3 -14 -20 -24 -39 -86 -169 -85 -400 3 -581 50 -105
168 -222 272 -272 102 -49 166 -63 290 -63 85 0 119 5 179 24 91 30 202 102
268 175 60 65 119 181 137 267 19 90 13 302 -9 371 -39 118 -105 219 -193 292
-53 44 -189 112 -242 121 -63 11 -224 14 -265 5z m167 -74 c173 -41 326 -216
360 -413 7 -46 15 -68 21 -60 13 19 -2 -199 -20 -283 -32 -156 -96 -252 -205
-310 -54 -29 -75 -35 -149 -38 -138 -7 -240 36 -337 142 -106 117 -155 261
-156 456 0 190 42 319 134 411 95 95 216 127 352 95z"/><path d="M9613 5255 c-195 -53 -302 -209 -264 -385 13 -61 67 -153 84 -143 6
3 7 1 3 -5 -10 -17 106 -87 258 -157 200 -92 265 -165 254 -287 -5 -53 -36
-138 -50 -138 -5 0 -18 -10 -30 -22 -13 -13 -25 -23 -28 -23 -3 -1 -29 -7 -59
-14 -109 -27 -227 8 -311 92 -41 41 -63 82 -99 179 -8 21 -15 25 -32 21 -20
-6 -21 -10 -14 -72 4 -36 10 -106 14 -156 6 -87 7 -90 31 -93 14 -1 72 -12
130 -24 202 -41 352 -22 464 59 94 68 137 155 138 284 1 68 -29 159 -53 159
-7 0 -9 3 -6 7 9 8 -22 43 -38 43 -7 0 -19 8 -26 18 -13 15 -12 16 4 3 9 -7
17 -11 17 -8 0 12 -100 78 -110 72 -5 -3 -10 -1 -10 6 0 7 -3 10 -6 6 -4 -3
-13 0 -20 8 -8 8 -22 11 -31 8 -12 -5 -14 -3 -8 7 6 10 4 12 -11 6 -10 -4 -15
-4 -12 0 4 4 -37 29 -92 56 -159 77 -209 136 -210 244 0 77 33 132 101 167 48
26 62 28 129 25 45 -2 90 -11 111 -22 76 -36 138 -120 154 -208 5 -28 12 -38
26 -38 11 0 18 3 17 8 -1 4 1 27 5 52 4 25 8 86 10 136 l3 91 -55 11 c-31 7
-85 18 -121 26 -81 19 -189 19 -257 1z"/><path d="M12106 5263 c-16 -3 -36 -11 -44 -20 -9 -8 -27 -13 -43 -11 -19 3
-25 0 -22 -9 5 -12 -13 -17 -54 -16 -7 1 -11 -3 -8 -7 5 -7 -95 -66 -107 -63
-3 1 -12 -5 -20 -15 -12 -16 -11 -16 7 -2 20 15 20 14 1 -8 -11 -12 -23 -22
-28 -22 -15 0 -74 -63 -106 -114 -17 -27 -43 -84 -57 -127 -24 -71 -27 -99
-25 -209 0 -19 0 -60 -1 -92 -4 -180 137 -397 314 -482 107 -52 198 -69 327
-63 188 9 339 88 452 238 73 96 124 238 113 311 -4 26 -3 29 4 13 7 -14 10 6
10 73 1 56 -3 92 -9 92 -6 0 -8 10 -5 23 8 29 -26 131 -68 210 -56 107 -239
267 -285 249 -11 -4 -13 -1 -7 7 6 10 2 11 -15 6 -14 -4 -20 -3 -16 3 7 12
-36 24 -58 16 -8 -3 -25 1 -38 10 -22 16 -135 20 -212 9z m146 -75 c29 -6 57
-11 61 -10 4 1 32 -16 62 -38 30 -22 55 -39 55 -36 0 2 15 -10 33 -28 68 -67
127 -185 149 -300 7 -35 15 -63 19 -60 12 7 8 -116 -7 -216 -30 -210 -99 -328
-223 -384 -77 -34 -157 -42 -246 -23 -174 37 -299 167 -354 367 -12 41 -21 85
-21 98 0 13 -4 21 -9 18 -5 -3 -11 4 -15 17 -9 34 -7 99 3 93 5 -3 12 29 16
71 14 147 47 239 116 317 90 101 226 144 361 114z"/><path d="M14900 5261 c-8 -5 -18 -7 -24 -4 -5 3 -6 1 -2 -5 4 -7 3 -12 -2 -12
-5 0 -22 -30 -37 -67 -16 -38 -57 -135 -91 -217 -35 -81 -65 -155 -66 -165 -2
-9 -9 -22 -15 -29 -13 -14 -17 -32 -13 -65 2 -23 -50 -128 -60 -122 -12 7 -23
-32 -14 -46 4 -7 3 -9 -3 -6 -14 9 -24 -18 -16 -40 4 -10 2 -14 -4 -10 -5 3
-37 -61 -73 -151 -82 -201 -100 -229 -156 -243 -33 -9 -44 -16 -44 -30 0 -19
9 -19 187 -17 170 3 188 5 191 21 3 12 -3 17 -20 17 -37 0 -96 19 -114 37 -22
23 -15 80 23 168 17 39 43 100 58 136 l28 66 189 5 c104 2 201 3 216 0 25 -3
31 -15 86 -160 32 -87 60 -174 62 -195 1 -22 0 -37 -3 -34 -2 3 -23 -1 -45 -9
-22 -8 -53 -14 -69 -14 -22 0 -29 -5 -29 -20 0 -20 5 -20 240 -19 218 0 240 2
240 18 0 15 -55 37 -108 43 -6 1 -10 3 -7 6 2 3 -4 17 -14 31 -10 14 -52 112
-92 218 -41 105 -78 189 -83 186 -5 -4 -6 0 -1 7 4 7 2 15 -4 20 -7 4 -13 17
-14 28 -1 12 -5 22 -10 22 -5 0 -6 7 -3 16 3 8 2 13 -3 10 -12 -8 -32 50 -25
69 4 8 1 15 -7 15 -7 0 -10 2 -7 5 3 3 -9 45 -28 93 -183 480 -176 467 -214
443z m21 -403 c29 -81 57 -144 62 -141 5 3 6 -4 2 -17 -5 -16 -4 -20 5 -15 7
4 11 1 9 -6 -4 -32 1 -50 13 -43 8 5 9 2 5 -9 -4 -10 -2 -28 3 -41 9 -24 9
-24 -83 -28 -51 -3 -133 -3 -184 0 l-92 5 14 28 c17 32 20 51 4 29 -8 -12 -9
-11 -6 5 2 11 8 19 15 18 6 -2 17 16 24 40 6 23 17 51 24 62 7 11 28 61 47
110 55 142 68 168 76 159 5 -5 32 -75 62 -156z"/><path d="M17134 5263 c-17 -3 -47 -66 -159 -336 -76 -182 -138 -337 -138 -344
0 -7 -4 -13 -9 -13 -4 0 -8 -4 -8 -10 0 -13 -147 -364 -173 -415 -12 -22 -20
-43 -19 -47 1 -5 -1 -7 -6 -6 -4 0 -28 -5 -54 -13 -34 -9 -48 -18 -48 -31 0
-17 14 -18 190 -18 176 0 190 1 190 18 0 14 -13 21 -58 30 -69 14 -82 25 -82
70 0 35 107 322 125 334 5 4 101 8 212 8 l202 0 15 -28 c8 -15 37 -87 65 -161
49 -128 59 -174 43 -197 -10 -15 -69 -34 -108 -34 -27 0 -34 -4 -34 -19 0 -18
12 -19 239 -20 132 -1 242 2 245 7 9 15 -9 28 -57 42 -56 15 -76 40 -113 137
-76 202 -137 349 -147 355 -6 4 -9 10 -5 13 10 11 -13 66 -25 58 -6 -4 -8 0
-4 10 3 10 2 17 -4 17 -6 0 -8 4 -5 9 3 5 -12 56 -34 113 -133 339 -159 407
-171 441 -13 37 -19 39 -65 30z m55 -467 c44 -121 81 -223 81 -228 0 -4 -81
-8 -181 -8 -168 0 -181 1 -174 18 71 187 181 450 186 444 4 -4 43 -106 88
-226z"/><path d="M6560 5215 c0 -21 5 -25 30 -25 37 0 85 -23 93 -44 7 -16 10 -998 4
-1030 -4 -21 -54 -44 -99 -45 -21 -1 -28 -6 -28 -21 0 -20 7 -20 318 -20 283
0 326 2 401 20 172 41 312 150 380 294 21 45 44 102 50 128 16 69 23 258 10
258 -7 0 -9 11 -6 27 3 14 -2 49 -10 77 -44 149 -147 273 -278 337 -131 63
-175 69 -542 69 l-323 0 0 -25z m710 -91 c94 -45 170 -116 210 -195 13 -24 25
-46 29 -49 3 -3 7 -12 8 -20 1 -8 8 -46 17 -85 32 -145 14 -320 -45 -444 -18
-36 -33 -69 -33 -72 -1 -3 -24 -26 -53 -51 -28 -25 -50 -48 -48 -50 2 -1 -32
-14 -76 -28 -43 -14 -79 -28 -79 -32 0 -8 -233 -3 -283 7 -21 4 -42 15 -47 24
-8 17 -12 266 -11 788 l1 242 23 4 c12 3 85 4 162 3 l140 -2 85 -40z"/><path d="M10293 5220 c1 -14 8 -24 15 -22 23 4 101 -20 116 -37 13 -14 15 -87
16 -516 1 -497 -1 -552 -13 -548 -4 1 -25 -4 -48 -12 -23 -8 -53 -15 -66 -15
-19 0 -24 -4 -19 -16 3 -9 6 -18 6 -20 0 -2 103 -4 229 -4 199 0 230 2 235 16
3 9 6 17 6 18 0 1 -12 3 -26 4 -47 4 -101 22 -115 38 -9 11 -13 70 -15 217 -2
111 -6 221 -9 244 -4 27 -2 44 6 49 21 12 72 6 81 -11 5 -8 14 -13 19 -9 5 3
8 2 7 -3 -2 -5 13 -26 33 -48 128 -142 330 -379 388 -457 l43 -58 164 0 c157
0 164 1 164 20 0 14 -7 20 -22 20 -83 2 -142 50 -341 280 -88 102 -186 209
-218 238 -35 31 -56 59 -52 65 3 7 2 9 -2 4 -11 -9 -45 22 -45 41 0 9 8 24 18
35 12 15 13 18 2 12 -13 -8 -13 -6 -1 8 7 9 17 14 22 11 5 -3 77 61 160 143
178 174 161 158 224 208 28 22 52 42 55 45 3 3 12 7 20 8 87 21 110 28 107 37
-2 5 -17 12 -33 14 l-29 4 30 7 c37 9 -230 12 -302 4 -39 -5 -53 -11 -56 -25
-4 -15 0 -19 20 -19 58 0 82 -48 48 -96 -8 -12 -12 -23 -10 -26 3 -2 -21 -29
-53 -59 l-57 -54 45 50 45 50 -47 -44 c-25 -24 -44 -49 -41 -57 2 -7 -5 -18
-17 -24 -18 -10 -21 -10 -15 2 4 7 -11 -5 -34 -27 -40 -38 -51 -52 -31 -40 24
15 7 -14 -17 -31 -16 -9 -34 -26 -41 -36 -15 -20 -37 -25 -26 -5 4 6 -5 1 -19
-12 -33 -30 -36 -41 -4 -16 12 10 -1 -5 -30 -33 -46 -47 -85 -70 -67 -40 4 7
3 8 -5 4 -6 -4 -9 -11 -6 -16 9 -15 -36 -23 -59 -11 -20 11 -21 17 -18 194 3
262 6 284 45 308 18 10 40 19 50 19 23 0 50 26 42 40 -4 6 -87 10 -221 10
l-214 0 -1 -22 c-1 -22 -1 -22 -10 2 l-8 25 2 -25z m164 -617 c-2 -21 -4 -6
-4 32 0 39 2 55 4 38 2 -18 2 -50 0 -70z"/><path d="M12967 5233 c-4 -3 -7 -14 -7 -23 0 -13 11 -19 40 -24 44 -7 102 -52
126 -97 21 -41 21 -893 0 -944 -8 -18 -12 -36 -9 -39 8 -8 -36 -23 -91 -31
-36 -6 -46 -11 -44 -24 3 -14 28 -16 201 -19 192 -2 197 -2 197 18 0 16 -7 20
-37 20 -52 0 -85 19 -105 60 -16 32 -18 74 -18 450 1 372 2 413 16 395 43 -57
218 -255 225 -255 5 0 9 -6 9 -12 0 -7 17 -28 38 -48 21 -19 29 -28 18 -20
-17 12 -17 10 3 -12 13 -15 28 -25 33 -22 5 3 8 2 7 -3 -4 -21 2 -33 16 -33 8
0 15 -6 15 -13 0 -7 86 -114 191 -237 105 -124 205 -242 221 -262 19 -24 38
-38 52 -38 22 0 23 4 29 115 3 63 6 298 7 522 0 224 5 424 10 443 15 54 32 71
86 85 37 9 49 17 49 31 0 18 -11 19 -183 22 -153 2 -185 0 -198 -13 -23 -22
-10 -32 47 -37 67 -7 87 -28 98 -104 10 -60 16 -394 13 -633 l-2 -134 -47 49
c-27 27 -47 52 -46 55 1 3 -24 33 -56 67 -31 35 -56 64 -54 66 2 2 -4 9 -14
17 -15 12 -16 12 -9 -1 4 -8 -2 -4 -13 9 -12 13 -21 29 -21 36 0 7 -8 19 -17
26 -11 10 -14 10 -9 2 15 -26 -3 -12 -30 24 -15 20 -21 33 -13 28 8 -5 5 1 -5
13 -11 12 -25 22 -33 22 -7 0 -13 7 -13 15 0 9 -51 75 -113 148 -62 73 -153
180 -202 240 l-88 107 -132 0 c-72 0 -135 -3 -138 -7z m1120 -630 c-2 -21 -4
-4 -4 37 0 41 2 58 4 38 2 -21 2 -55 0 -75z"/><path d="M15630 5226 c0 -9 21 -21 53 -31 86 -28 87 -30 87 -234 0 -97 4 -204
10 -239 7 -51 5 -70 -8 -100 -8 -20 -15 -41 -14 -45 1 -4 -3 -7 -10 -5 -7 1
-32 -9 -55 -22 -43 -25 -61 -66 -47 -104 9 -22 19 -20 69 14 24 17 46 30 49
30 3 0 6 -81 6 -179 0 -156 -2 -181 -17 -199 -20 -22 -72 -42 -109 -42 -17 0
-24 -6 -24 -20 0 -20 7 -20 414 -20 l413 0 6 48 c3 26 12 85 21 132 13 77 13
86 -1 97 -14 11 -21 2 -53 -60 -26 -51 -49 -81 -79 -102 l-43 -30 -169 0
c-140 0 -171 3 -179 15 -6 9 -9 108 -7 239 l2 225 126 110 c70 61 133 116 142
121 8 6 17 32 20 62 9 79 -11 73 -123 -35 -52 -52 -95 -97 -95 -102 0 -5 -4
-12 -9 -17 -6 -5 -6 -2 -1 7 5 10 1 8 -13 -4 -24 -21 -29 -30 -9 -21 6 4 3 0
-7 -9 -10 -8 -23 -13 -27 -10 -5 3 -9 101 -9 218 0 199 1 215 20 239 19 24
103 52 122 41 4 -3 8 -1 8 5 0 5 3 16 6 25 5 13 -24 15 -230 16 -200 0 -236
-2 -236 -14z"/><path d="M4080 2450 c-225 -9 -289 -14 -367 -32 -234 -51 469 -99 985 -67 209
13 297 27 297 49 0 19 -38 24 -260 39 -266 17 -433 20 -655 11z"/>
  </g>
  <g transform="translate(0.000000,793.000000) scale(0.100000,-0.100000)" fill="#FFFFFF">
    <path d="M11020 5220 c0 -11 5 -20 10 -20 6 0 10 6 10 14 0 8 6 17 13 19 6 3
2 6 -10 6 -17 1 -23 -5 -23 -19z"/>
    <g transform="translate(-4029.700,0)">
      <path d="M12378 3563 c-54 -2 -98 -8 -98 -13 0 -6 9 -10 20 -10 11 0 29 -9 40
-20 19 -19 20 -33 20 -314 0 -315 1 -307 -52 -320 -16 -3 -28 -11 -28 -16 0
-6 55 -10 141 -10 108 0 140 3 137 13 -3 6 -21 13 -41 15 -55 5 -60 18 -60
155 1 98 4 121 14 118 46 -13 120 -11 173 4 157 46 223 218 125 329 -57 65
-137 79 -391 69z m252 -59 c49 -30 70 -72 70 -143 0 -70 -17 -110 -57 -139
-37 -26 -82 -35 -138 -27 l-45 7 0 158 c0 117 3 160 13 164 24 11 126 -2 157
-20z"/>
      <path d="M 12526.5 3216.5 L 12632.2 3216.5 L 12914.0 2860.0 L 12749.6 2860.0 Z"/>
    </g>
    <g transform="translate(-5874.000,0)">
      <path d="M15103 3563 c-101 -2 -183 -7 -183 -11 0 -5 17 -13 38 -18 l37 -9 3
-304 c1 -199 -1 -308 -8 -316 -6 -7 -24 -15 -40 -19 -17 -3 -30 -10 -30 -16 0
-6 87 -10 255 -10 l255 0 5 23 c18 79 25 114 25 130 0 25 -27 21 -34 -6 -3
-13 -21 -41 -40 -62 l-34 -40 -111 -3 c-77 -3 -116 0 -126 8 -12 10 -15 42
-15 155 l0 142 93 -2 c51 -1 98 -5 105 -9 6 -3 14 -22 18 -41 3 -20 12 -35 20
-35 11 0 14 22 14 105 0 80 -3 105 -13 105 -8 0 -18 -17 -23 -37 l-9 -38 -102
-3 -103 -3 0 136 0 137 121 -4 c135 -3 144 -8 156 -80 4 -28 10 -38 24 -38 17
0 19 9 19 85 l0 85 -67 -2 c-38 -2 -150 -4 -250 -5z"/>
    </g>
    <g transform="translate(-4655.000,0)">
      <path d="M14518 3562 c-39 -5 -35 -17 10 -28 l37 -9 3 -384 c2 -332 0 -387
-13 -408 -20 -30 -50 -29 -91 2 l-32 25 -17 -26 c-24 -37 -16 -58 27 -68 52
-13 107 6 156 54 64 62 70 95 77 460 4 173 9 323 11 332 3 10 19 20 40 24 66
12 29 25 -76 27 -58 1 -117 1 -132 -1z"/>
    </g>
    <g transform="translate(-4633.000,0)">
      <path d="M15103 3563 c-101 -2 -183 -7 -183 -11 0 -5 17 -13 38 -18 l37 -9 3
-304 c1 -199 -1 -308 -8 -316 -6 -7 -24 -15 -40 -19 -17 -3 -30 -10 -30 -16 0
-6 87 -10 255 -10 l255 0 5 23 c18 79 25 114 25 130 0 25 -27 21 -34 -6 -3
-13 -21 -41 -40 -62 l-34 -40 -111 -3 c-77 -3 -116 0 -126 8 -12 10 -15 42
-15 155 l0 142 93 -2 c51 -1 98 -5 105 -9 6 -3 14 -22 18 -41 3 -20 12 -35 20
-35 11 0 14 22 14 105 0 80 -3 105 -13 105 -8 0 -18 -17 -23 -37 l-9 -38 -102
-3 -103 -3 0 136 0 137 121 -4 c135 -3 144 -8 156 -80 4 -28 10 -38 24 -38 17
0 19 9 19 85 l0 85 -67 -2 c-38 -2 -150 -4 -250 -5z"/>
    </g>
    <g transform="translate(2773.000,0)">
      <path d="M8333 3555 c-85 -43 -129 -132 -103 -210 21 -63 65 -102 192 -166
158 -81 193 -130 154 -222 -20 -50 -60 -71 -131 -72 -99 0 -159 41 -190 131
-7 21 -19 39 -26 39 -10 0 -13 -20 -10 -85 1 -47 5 -88 7 -91 2 -4 18 -9 36
-12 18 -3 67 -11 109 -18 97 -16 171 -2 231 44 53 41 78 89 78 150 0 99 -38
143 -195 220 -127 63 -161 91 -170 140 -14 71 50 137 132 137 73 0 131 -42
155 -113 21 -59 33 -48 38 38 3 44 5 82 3 84 -6 10 -136 30 -194 31 -50 0 -77
-6 -116 -25z"/>
    </g>
    <g transform="translate(-4867.000,0)">
      <path d="M16476 3545 c-3 -11 -6 -48 -6 -83 0 -74 16 -80 38 -13 18 53 54 71
142 71 l60 0 0 -304 c0 -327 1 -321 -54 -328 -16 -1 -31 -9 -34 -15 -3 -10 30
-13 143 -13 113 0 146 3 143 12 -3 7 -22 16 -42 19 -21 3 -42 12 -47 20 -5 8
-9 148 -9 313 l0 298 79 -3 c91 -5 115 -19 131 -81 7 -22 17 -38 26 -38 12 0
14 14 12 82 l-3 82 -287 0 c-279 1 -287 0 -292 -19z"/>
    </g>
    <g transform="translate(63.000,0)">
      <path d="M12378 3563 c-54 -2 -98 -8 -98 -13 0 -6 9 -10 20 -10 11 0 29 -9 40
-20 19 -19 20 -33 20 -314 0 -315 1 -307 -52 -320 -16 -3 -28 -11 -28 -16 0
-6 55 -10 141 -10 108 0 140 3 137 13 -3 6 -21 13 -41 15 -55 5 -60 18 -60
155 1 98 4 121 14 118 46 -13 120 -11 173 4 157 46 223 218 125 329 -57 65
-137 79 -391 69z m252 -59 c49 -30 70 -72 70 -143 0 -70 -17 -110 -57 -139
-37 -26 -82 -35 -138 -27 l-45 7 0 158 c0 117 3 160 13 164 24 11 126 -2 157
-20z"/>
      <path d="M 12526.5 3216.5 L 12632.2 3216.5 L 12914.0 2860.0 L 12749.6 2860.0 Z"/>
    </g>
    <g transform="translate(282.700,0)">
      <path d="M13120 3383 c-211 -507 -202 -489 -244 -495 -11 -2 -20 -7 -19 -13 2
-6 50 -11 113 -13 93 -2 110 0 110 13 0 10 -10 15 -34 15 -18 0 -39 7 -46 15
-13 16 -11 23 32 138 l30 77 128 0 128 0 36 -101 c40 -112 39 -123 -20 -133
-71 -14 -18 -26 112 -26 101 0 135 3 132 12 -3 7 -19 16 -36 20 -17 5 -36 17
-41 27 -13 23 -182 456 -224 574 -26 72 -35 87 -53 87 -18 0 -33 -28 -104
-197z m124 -79 c25 -67 46 -124 46 -128 0 -3 -45 -6 -100 -6 -55 0 -100 4
-100 8 0 4 18 53 40 107 55 136 60 148 64 144 2 -2 25 -58 50 -125z"/>
    </g>
    <g transform="translate(328.700,0)">
      <path d="M13943 3566 c-104 -34 -185 -106 -232 -205 -22 -48 -26 -69 -26 -151
0 -83 4 -103 28 -155 88 -188 294 -261 506 -178 l70 27 10 55 c6 31 13 66 17
79 12 41 -24 25 -44 -20 -36 -78 -88 -116 -176 -125 -140 -14 -262 88 -296
249 -11 48 -11 78 -2 139 14 96 38 145 96 196 76 67 172 81 261 39 62 -29 83
-52 99 -108 8 -24 19 -43 27 -43 11 0 14 20 14 89 l0 89 -60 14 c-90 21 -242
25 -292 9z"/>
    </g>
    <g transform="translate(415.700,0)">
      <path d="M14518 3562 c-39 -5 -35 -17 10 -28 l37 -9 3 -384 c2 -332 0 -387
-13 -408 -20 -30 -50 -29 -91 2 l-32 25 -17 -26 c-24 -37 -16 -58 27 -68 52
-13 107 6 156 54 64 62 70 95 77 460 4 173 9 323 11 332 3 10 19 20 40 24 66
12 29 25 -76 27 -58 1 -117 1 -132 -1z"/>
    </g>
    <g transform="translate(2501.700,0)">
      <path d="M13120 3383 c-211 -507 -202 -489 -244 -495 -11 -2 -20 -7 -19 -13 2
-6 50 -11 113 -13 93 -2 110 0 110 13 0 10 -10 15 -34 15 -18 0 -39 7 -46 15
-13 16 -11 23 32 138 l30 77 128 0 128 0 36 -101 c40 -112 39 -123 -20 -133
-71 -14 -18 -26 112 -26 101 0 135 3 132 12 -3 7 -19 16 -36 20 -17 5 -36 17
-41 27 -13 23 -182 456 -224 574 -26 72 -35 87 -53 87 -18 0 -33 -28 -104
-197z m124 -79 c25 -67 46 -124 46 -128 0 -3 -45 -6 -100 -6 -55 0 -100 4
-100 8 0 4 18 53 40 107 55 136 60 148 64 144 2 -2 25 -58 50 -125z"/>
    </g>
  </g>
</svg>